:FULLY-SPECIFIED
:DEGREES
948
root 0.582828 15.7523 -2.37551 1997.51 -79.6244 -1995.75
lowerback 5.48329 2.96542 -6.8154
upperback -1.0018 3.43706 -0.566757
thorax -4.49321 1.86261 2.89707
lowerneck -18.5262 1.07956 1.61262
upperneck 32.1972 0.845114 -1.65813
head 14.1191 0.0523927 -0.872905
rclavicle -5.56597e-015 6.85807e-015
rhumerus -26.4492 -14.1854 -86.2757
rradius 17.8819
rwrist 12.5275
rhand -30.7245 -16.3703
rfingers 7.12502
rthumb -4.01711 -46.3122
lclavicle -5.56597e-015 6.85807e-015
lhumerus -31.1383 -1.34523 90.2046
lradius 22.7885
lwrist 3.46876
lhand -31.5714 15.963
lfingers 7.12502
lthumb -4.83486 45.8878
rfemur -13.1131 0.901689 14.4613
rtibia 63.1725
rfoot 3.85434 -16.1398
rtoes -13.1929
lfemur -14.1779 -5.68001 -26.8561
ltibia 22.8627
lfoot -7.99524 9.56888
ltoes -5.22588
949
root 0.587938 15.7546 -2.35584 1997.62 -79.6599 -1996.09
lowerback 5.54264 2.85303 -6.82169
upperback -0.895216 3.28942 -0.504846
thorax -4.40362 1.78578 2.9814
lowerneck -18.5226 1.16041 1.58336
upperneck 32.4135 0.969937 -1.69264
head 14.2174 0.0907305 -0.864277
rclavicle 3.26007e-014 -6.06293e-015
rhumerus -27.1666 -15.8236 -85.2265
rradius 16.9794
rwrist 14.5555
rhand -30.5828 -16.3514
rfingers 7.12502
rthumb -3.88026 -46.2958
lclavicle 3.26007e-014 -6.06293e-015
lhumerus -30.527 -2.18343 90.3228
lradius 23.7588
lwrist 4.28557
lhand -31.7441 15.9237
lfingers 7.12502
lthumb -5.00164 45.8447
rfemur -14.3579 0.661636 14.4782
rtibia 64.611
rfoot 2.30895 -17.6741
rtoes -10.6252
lfemur -13.2527 -5.90175 -27.1709
ltibia 22.6633
lfoot -8.44705 9.81846
ltoes -4.81137
950
root 0.598797 15.7525 -2.33716 1997.67 -79.6448 -1996.27
lowerback 5.5267 2.77704 -6.81319
upperback -0.811661 3.19545 -0.464596
thorax -4.29889 1.73487 3.0319
lowerneck -18.5011 1.2149 1.60048
upperneck 32.5868 1.04493 -1.73498
head 14.2922 0.113291 -0.874806
rclavicle -5.96354e-015 -1.68967e-015
rhumerus -27.9716 -17.5739 -84.0996
rradius 16.2076
rwrist 16.6876
rhand -30.6976 -16.5648
rfingers 7.12502
rthumb -3.9911 -46.5072
lclavicle -5.96354e-015 -1.68967e-015
lhumerus -29.8836 -3.19617 90.4625
lradius 24.7643
lwrist 5.18172
lhand -31.9763 16.0256
lfingers 7.12502
lthumb -5.22582 45.9412
rfemur -15.6987 0.465328 14.5029
rtibia 65.7745
rfoot 1.04838 -18.5871
rtoes -9.02531
lfemur -12.4069 -6.0821 -27.4753
ltibia 22.4394
lfoot -8.76141 10.1182
ltoes -5.13257
951
root 0.611237 15.7491 -2.32315 1997.67 -79.7087 -1996.37
lowerback 5.52007 2.67409 -6.79279
upperback -0.736144 3.06556 -0.419056
thorax -4.20355 1.66639 3.08412
lowerneck -18.503 1.27674 1.59154
upperneck 32.7256 1.12632 -1.72977
head 14.3568 0.143222 -0.859611
rclavicle -9.93923e-015 -4.87022e-015
rhumerus -28.8594 -19.3 -82.9203
rradius 15.5013
rwrist 18.7209
rhand -31.0223 -16.4898
rfingers 7.12502
rthumb -4.30466 -46.4261
lclavicle -9.93923e-015 -4.87022e-015
lhumerus -29.1718 -3.88622 90.425
lradius 25.7151
lwrist 5.84246
lhand -32.2254 16.0066
lfingers 7.12502
lthumb -5.46638 45.9161
rfemur -16.9465 0.413567 14.6521
rtibia 66.5802
rfoot -0.456135 -19.3329
rtoes -9.17122
lfemur -11.6029 -6.12504 -27.7169
ltibia 22.2116
lfoot -9.16534 10.2051
ltoes -5.27561
952
root 0.625148 15.7466 -2.30757 1997.94 -79.7996 -1996.78
lowerback 5.57992 2.56092 -6.85122
upperback -0.684961 2.91172 -0.339701
thorax -4.17469 1.59076 3.21419
lowerneck -18.452 1.32858 1.52712
upperneck 32.8742 1.21761 -1.74552
head 14.414 0.166196 -0.841917
rclavicle 6.36111e-015 5.86415e-015
rhumerus -29.8328 -20.8871 -81.6137
rradius 14.9047
rwrist 20.5271
rhand -31.1566 -16.6525
rfingers 7.12502
rthumb -4.43434 -46.586
lclavicle 6.36111e-015 5.86415e-015
lhumerus -28.5479 -4.42269 90.4058
lradius 26.7283
lwrist 6.4009
lhand -32.4511 16.0083
lfingers 7.12502
lthumb -5.68429 45.9121
rfemur -18.0625 0.395404 14.7268
rtibia 67.1016
rfoot -1.94636 -19.6271
rtoes -9.15049
lfemur -10.7924 -6.21765 -28.0132
ltibia 22.0364
lfoot -9.53984 10.2517
ltoes -5.32506
953
root 0.641107 15.7359 -2.29387 1998.21 -79.8632 -1997.16
lowerback 5.653 2.48046 -6.88139
upperback -0.670712 2.79905 -0.297406
thorax -4.19246 1.53645 3.28425
lowerneck -18.4426 1.36845 1.5268
upperneck 33.0709 1.26953 -1.76854
head 14.5024 0.178512 -0.845999
rclavicle -2.10712e-014 1.09332e-015
rhumerus -30.9403 -22.5148 -80.2248
rradius 14.3886
rwrist 22.3155
rhand -31.468 -16.6382
rfingers 7.12502
rthumb -4.73504 -46.5653
lclavicle -2.10712e-014 1.09332e-015
lhumerus -27.9937 -5.06821 90.3283
lradius 27.8612
lwrist 7.0572
lhand -32.5439 16.0286
lfingers 7.12502
lthumb -5.77389 45.9299
rfemur -19.2047 0.415541 14.8183
rtibia 67.3792
rfoot -3.15485 -19.462
rtoes -9.86482
lfemur -10.0273 -6.19565 -28.3044
ltibia 21.9113
lfoot -10.0067 10.2553
ltoes -5.46494
954
root 0.657281 15.7305 -2.2825 1998.79 -80.0013 -1997.87
lowerback 5.75168 2.34058 -7.02861
upperback -0.646504 2.59931 -0.206975
thorax -4.21224 1.44223 3.47857
lowerneck -18.4192 1.42686 1.474
upperneck 33.2276 1.37169 -1.79866
head 14.5706 0.205035 -0.834403
rclavicle -5.48646e-014 2.23074e-014
rhumerus -32.0336 -23.853 -78.8413
rradius 13.9816
rwrist 23.7402
rhand -31.5898 -16.6447
rfingers 7.12502
rthumb -4.85266 -46.5691
lclavicle -5.48646e-014 2.23074e-014
lhumerus -27.397 -5.51795 90.2318
lradius 28.8966
lwrist 7.52078
lhand -32.6305 16.164
lfingers 7.12502
lthumb -5.85744 46.0631
rfemur -20.1971 0.470602 14.9068
rtibia 67.3898
rfoot -4.54315 -19.1037
rtoes -10.5244
lfemur -9.29964 -6.28456 -28.5958
ltibia 21.7896
lfoot -10.3507 10.235
ltoes -5.4876
